<svg width="54" height="112" viewBox="0 0 54 112" fill="none" xmlns="http://www.w3.org/2000/svg">
<mask id="path-1-inside-1_1109_209" fill="white">
<path fill-rule="evenodd" clip-rule="evenodd" d="M53.3373 14.3676L30.4775 0H22.8575V68.5713L53.3373 85.3927V28.7351V14.3676ZM30.4798 111.894H45.7196H53.3396V93.9344L0 65.1993L30.4798 111.894Z"/>
</mask>
<path d="M30.4775 0L31.0096 -0.846661L30.7656 -1H30.4775V0ZM53.3373 14.3676H54.3373V13.815L53.8694 13.5209L53.3373 14.3676ZM22.8575 0V-1H21.8575V0H22.8575ZM22.8575 68.5713H21.8575V69.1616L22.3744 69.4468L22.8575 68.5713ZM53.3373 85.3927L52.8541 86.2682L54.3373 87.0868V85.3927H53.3373ZM30.4798 111.894L29.6424 112.44L29.9383 112.894H30.4798V111.894ZM53.3396 111.894V112.894H54.3396V111.894H53.3396ZM53.3396 93.9344H54.3396V93.3373L53.8138 93.054L53.3396 93.9344ZM0 65.1993L0.474277 64.3189L-0.837391 65.7459L0 65.1993ZM29.9453 0.846661L52.8052 15.2142L53.8694 13.5209L31.0096 -0.846661L29.9453 0.846661ZM22.8575 1H30.4775V-1H22.8575V1ZM23.8575 68.5713V0H21.8575V68.5713H23.8575ZM53.8205 84.5172L23.3407 67.6958L22.3744 69.4468L52.8541 86.2682L53.8205 84.5172ZM52.3373 28.7351V85.3927H54.3373V28.7351H52.3373ZM52.3373 14.3676V28.7351H54.3373V14.3676H52.3373ZM45.7196 110.894H30.4798V112.894H45.7196V110.894ZM53.3396 110.894H45.7196V112.894H53.3396V110.894ZM52.3396 93.9344V111.894H54.3396V93.9344H52.3396ZM-0.474277 66.0797L52.8653 94.8148L53.8138 93.054L0.474277 64.3189L-0.474277 66.0797ZM31.3171 111.347L0.837391 64.6527L-0.837391 65.7459L29.6424 112.44L31.3171 111.347Z" fill="#757391" fill-opacity="0.2" mask="url(#path-1-inside-1_1109_209)"/>
</svg>
