<svg width="1114" height="323" viewBox="0 0 1114 323" fill="none" xmlns="http://www.w3.org/2000/svg">
<g opacity="0.1">
<mask id="path-1-outside-1_1021_2910" maskUnits="userSpaceOnUse" x="0" y="0" width="1114" height="323" fill="black">
<rect fill="white" width="1114" height="323"/>
<path d="M92.1223 182.705L2 33.2945H60.2688L118.926 131.735L177.972 33.2945H236.24L144.953 183.873V317.331H92.1223V182.705Z"/>
<path d="M256.404 89.7127H309.234V317.331H256.404V89.7127ZM249.8 34.0727C249.8 24.2158 252.778 16.3042 258.735 10.3382C264.691 4.11273 272.719 1 282.819 1C293.178 1 301.206 4.11273 306.903 10.3382C312.86 16.3042 315.838 24.2158 315.838 34.0727C315.838 43.9297 312.86 51.8412 306.903 57.8073C301.206 63.7733 293.178 66.7564 282.819 66.7564C272.201 66.7564 264.043 63.7733 258.346 57.8073C252.649 51.8412 249.8 43.9297 249.8 34.0727Z"/>
<path d="M452.135 322C434.266 322 417.951 319.017 403.189 313.051C388.428 306.825 375.738 298.395 365.121 287.76C354.762 277.125 346.604 264.674 340.648 250.407C334.95 235.881 332.102 220.447 332.102 204.105C332.102 187.504 335.08 171.941 341.036 157.415C347.251 142.888 355.668 130.308 366.286 119.673C376.904 109.038 389.334 100.607 403.578 94.3818C418.08 88.1564 433.619 85.0436 450.193 85.0436C467.026 85.0436 482.564 88.0267 496.808 93.9927C511.31 99.6994 523.741 107.87 534.1 118.505C544.459 128.881 552.487 141.202 558.184 155.469C564.141 169.736 567.119 185.299 567.119 202.16V222.004H382.213C385.838 238.086 393.737 251.056 405.909 260.913C418.08 270.77 433.489 275.698 452.135 275.698C466.897 275.698 479.716 272.067 490.593 264.804C501.469 257.541 509.627 247.813 515.065 235.622L558.184 260.524C548.343 278.941 534.488 293.856 516.619 305.269C499.009 316.423 477.515 322 452.135 322ZM450.193 131.345C434.396 131.345 420.67 135.625 409.016 144.185C397.622 152.745 389.593 164.029 384.932 178.036H513.9C510.016 162.732 502.505 151.189 491.37 143.407C480.234 135.366 466.508 131.345 450.193 131.345Z"/>
<path d="M590.615 29.4036H643.445V317.331H590.615V29.4036Z"/>
<path d="M778.188 322C764.463 322 750.867 319.406 737.4 314.218C724.193 308.771 712.28 300.989 701.662 290.873C691.044 280.756 682.498 268.435 676.024 253.909C669.549 239.124 666.312 222.393 666.312 203.716C666.312 184.781 669.42 168.05 675.635 153.524C682.11 138.738 690.526 126.287 700.885 116.171C711.503 106.055 723.545 98.4024 737.012 93.2145C750.737 87.7673 764.722 85.0436 778.965 85.0436C793.727 85.0436 807.452 87.897 820.142 93.6036C832.831 99.0509 843.32 106.703 851.607 116.56V29.4036H904.437V317.331H851.995V287.76C843.708 298.395 833.09 306.825 820.142 313.051C807.193 319.017 793.209 322 778.188 322ZM786.734 273.753C796.575 273.753 805.639 271.937 813.927 268.305C822.214 264.674 829.335 259.616 835.292 253.131C841.248 246.646 845.91 239.124 849.276 230.564C852.902 222.004 854.715 212.795 854.715 202.938C854.715 193.341 852.902 184.262 849.276 175.702C845.91 167.142 841.248 159.749 835.292 153.524C829.335 147.039 822.214 141.981 813.927 138.349C805.639 134.718 796.575 132.902 786.734 132.902C777.152 132.902 768.088 134.718 759.542 138.349C751.255 141.981 744.004 146.909 737.789 153.135C731.573 159.36 726.653 166.753 723.027 175.313C719.661 183.873 717.977 193.081 717.977 202.938C717.977 212.795 719.661 222.133 723.027 230.953C726.653 239.513 731.573 247.035 737.789 253.52C744.004 259.745 751.255 264.674 759.542 268.305C768.088 271.937 777.152 273.753 786.734 273.753Z"/>
<path d="M1019.77 322C994.65 322 973.802 317.331 957.228 307.993C940.654 298.395 927.835 284.647 918.771 266.749L967.328 243.404C972.767 254.039 980.147 262.21 989.47 267.916C998.793 273.623 1009.67 276.476 1022.1 276.476C1035.05 276.476 1044.76 273.753 1051.24 268.305C1057.71 262.858 1060.95 256.373 1060.95 248.851C1060.95 244.701 1059.39 241.328 1056.29 238.735C1053.44 236.141 1049.55 233.936 1044.63 232.12C1039.97 230.045 1034.4 228.359 1027.93 227.062C1021.45 225.765 1014.72 224.338 1007.73 222.782C997.887 220.707 988.175 218.242 978.594 215.389C969.27 212.536 960.854 208.645 953.344 203.716C945.833 198.528 939.748 192.044 935.086 184.262C930.425 176.221 928.094 166.234 928.094 154.302C928.094 145.223 930.166 136.533 934.309 128.233C938.712 119.673 944.798 112.15 952.567 105.665C960.336 99.1806 969.659 94.1224 980.536 90.4909C991.672 86.6 1003.97 84.6545 1017.44 84.6545C1040.23 84.6545 1059.13 88.9345 1074.15 97.4946C1089.43 105.795 1101.48 117.208 1110.28 131.735L1065.61 154.302C1060.95 146.261 1054.47 139.905 1046.19 135.236C1037.9 130.567 1028.32 128.233 1017.44 128.233C1005.01 128.233 995.815 130.697 989.859 135.625C983.902 140.554 980.924 146.261 980.924 152.745C980.924 160.268 985.327 165.715 994.132 169.087C1002.94 172.2 1015.89 175.572 1032.98 179.204C1042.3 181.019 1051.62 183.484 1060.95 186.596C1070.53 189.45 1079.2 193.47 1086.97 198.658C1094.74 203.587 1100.96 210.072 1105.62 218.113C1110.54 225.895 1113 235.752 1113 247.684C1113 255.725 1111.19 264.155 1107.56 272.975C1103.94 281.535 1098.24 289.576 1090.47 297.098C1082.96 304.361 1073.38 310.327 1061.72 314.996C1050.07 319.665 1036.09 322 1019.77 322Z"/>
</mask>
<path d="M92.1223 182.705L2 33.2945H60.2688L118.926 131.735L177.972 33.2945H236.24L144.953 183.873V317.331H92.1223V182.705Z" stroke="#757391" stroke-width="2" mask="url(#path-1-outside-1_1021_2910)"/>
<path d="M256.404 89.7127H309.234V317.331H256.404V89.7127ZM249.8 34.0727C249.8 24.2158 252.778 16.3042 258.735 10.3382C264.691 4.11273 272.719 1 282.819 1C293.178 1 301.206 4.11273 306.903 10.3382C312.86 16.3042 315.838 24.2158 315.838 34.0727C315.838 43.9297 312.86 51.8412 306.903 57.8073C301.206 63.7733 293.178 66.7564 282.819 66.7564C272.201 66.7564 264.043 63.7733 258.346 57.8073C252.649 51.8412 249.8 43.9297 249.8 34.0727Z" stroke="#757391" stroke-width="2" mask="url(#path-1-outside-1_1021_2910)"/>
<path d="M452.135 322C434.266 322 417.951 319.017 403.189 313.051C388.428 306.825 375.738 298.395 365.121 287.76C354.762 277.125 346.604 264.674 340.648 250.407C334.95 235.881 332.102 220.447 332.102 204.105C332.102 187.504 335.08 171.941 341.036 157.415C347.251 142.888 355.668 130.308 366.286 119.673C376.904 109.038 389.334 100.607 403.578 94.3818C418.08 88.1564 433.619 85.0436 450.193 85.0436C467.026 85.0436 482.564 88.0267 496.808 93.9927C511.31 99.6994 523.741 107.87 534.1 118.505C544.459 128.881 552.487 141.202 558.184 155.469C564.141 169.736 567.119 185.299 567.119 202.16V222.004H382.213C385.838 238.086 393.737 251.056 405.909 260.913C418.08 270.77 433.489 275.698 452.135 275.698C466.897 275.698 479.716 272.067 490.593 264.804C501.469 257.541 509.627 247.813 515.065 235.622L558.184 260.524C548.343 278.941 534.488 293.856 516.619 305.269C499.009 316.423 477.515 322 452.135 322ZM450.193 131.345C434.396 131.345 420.67 135.625 409.016 144.185C397.622 152.745 389.593 164.029 384.932 178.036H513.9C510.016 162.732 502.505 151.189 491.37 143.407C480.234 135.366 466.508 131.345 450.193 131.345Z" stroke="#757391" stroke-width="2" mask="url(#path-1-outside-1_1021_2910)"/>
<path d="M590.615 29.4036H643.445V317.331H590.615V29.4036Z" stroke="#757391" stroke-width="2" mask="url(#path-1-outside-1_1021_2910)"/>
<path d="M778.188 322C764.463 322 750.867 319.406 737.4 314.218C724.193 308.771 712.28 300.989 701.662 290.873C691.044 280.756 682.498 268.435 676.024 253.909C669.549 239.124 666.312 222.393 666.312 203.716C666.312 184.781 669.42 168.05 675.635 153.524C682.11 138.738 690.526 126.287 700.885 116.171C711.503 106.055 723.545 98.4024 737.012 93.2145C750.737 87.7673 764.722 85.0436 778.965 85.0436C793.727 85.0436 807.452 87.897 820.142 93.6036C832.831 99.0509 843.32 106.703 851.607 116.56V29.4036H904.437V317.331H851.995V287.76C843.708 298.395 833.09 306.825 820.142 313.051C807.193 319.017 793.209 322 778.188 322ZM786.734 273.753C796.575 273.753 805.639 271.937 813.927 268.305C822.214 264.674 829.335 259.616 835.292 253.131C841.248 246.646 845.91 239.124 849.276 230.564C852.902 222.004 854.715 212.795 854.715 202.938C854.715 193.341 852.902 184.262 849.276 175.702C845.91 167.142 841.248 159.749 835.292 153.524C829.335 147.039 822.214 141.981 813.927 138.349C805.639 134.718 796.575 132.902 786.734 132.902C777.152 132.902 768.088 134.718 759.542 138.349C751.255 141.981 744.004 146.909 737.789 153.135C731.573 159.36 726.653 166.753 723.027 175.313C719.661 183.873 717.977 193.081 717.977 202.938C717.977 212.795 719.661 222.133 723.027 230.953C726.653 239.513 731.573 247.035 737.789 253.52C744.004 259.745 751.255 264.674 759.542 268.305C768.088 271.937 777.152 273.753 786.734 273.753Z" stroke="#757391" stroke-width="2" mask="url(#path-1-outside-1_1021_2910)"/>
<path d="M1019.77 322C994.65 322 973.802 317.331 957.228 307.993C940.654 298.395 927.835 284.647 918.771 266.749L967.328 243.404C972.767 254.039 980.147 262.21 989.47 267.916C998.793 273.623 1009.67 276.476 1022.1 276.476C1035.05 276.476 1044.76 273.753 1051.24 268.305C1057.71 262.858 1060.95 256.373 1060.95 248.851C1060.95 244.701 1059.39 241.328 1056.29 238.735C1053.44 236.141 1049.55 233.936 1044.63 232.12C1039.97 230.045 1034.4 228.359 1027.93 227.062C1021.45 225.765 1014.72 224.338 1007.73 222.782C997.887 220.707 988.175 218.242 978.594 215.389C969.27 212.536 960.854 208.645 953.344 203.716C945.833 198.528 939.748 192.044 935.086 184.262C930.425 176.221 928.094 166.234 928.094 154.302C928.094 145.223 930.166 136.533 934.309 128.233C938.712 119.673 944.798 112.15 952.567 105.665C960.336 99.1806 969.659 94.1224 980.536 90.4909C991.672 86.6 1003.97 84.6545 1017.44 84.6545C1040.23 84.6545 1059.13 88.9345 1074.15 97.4946C1089.43 105.795 1101.48 117.208 1110.28 131.735L1065.61 154.302C1060.95 146.261 1054.47 139.905 1046.19 135.236C1037.9 130.567 1028.32 128.233 1017.44 128.233C1005.01 128.233 995.815 130.697 989.859 135.625C983.902 140.554 980.924 146.261 980.924 152.745C980.924 160.268 985.327 165.715 994.132 169.087C1002.94 172.2 1015.89 175.572 1032.98 179.204C1042.3 181.019 1051.62 183.484 1060.95 186.596C1070.53 189.45 1079.2 193.47 1086.97 198.658C1094.74 203.587 1100.96 210.072 1105.62 218.113C1110.54 225.895 1113 235.752 1113 247.684C1113 255.725 1111.19 264.155 1107.56 272.975C1103.94 281.535 1098.24 289.576 1090.47 297.098C1082.96 304.361 1073.38 310.327 1061.72 314.996C1050.07 319.665 1036.09 322 1019.77 322Z" stroke="#757391" stroke-width="2" mask="url(#path-1-outside-1_1021_2910)"/>
</g>
</svg>
