<?xml version="1.0" encoding="utf-8"?>
<!-- Generator: Adobe Illustrator 24.3.0, SVG Export Plug-In . SVG Version: 6.00 Build 0)  -->
<svg version="1.1" id="Layer_1" xmlns="http://www.w3.org/2000/svg" xmlns:xlink="http://www.w3.org/1999/xlink" x="0px" y="0px"
	 viewBox="0 0 1500 1500" style="enable-background:new 0 0 1500 1500;" xml:space="preserve">
<style type="text/css">
	.st0{fill:#FE005C;}
	.st1{fill:#FEFEFE;}
</style>
<g>
	<path class="st0" d="M1498.07,708.62c-2.96-27.09-4.9-54.32-9-81.23c-10.02-65.89-29.34-129.17-57.49-189.56
		c-75.7-162.42-194.02-283.47-354.59-362.95c-67.92-33.62-139.68-55.56-214.64-66.55c-23.82-3.49-47.93-4.95-71.9-7.38
		c-0.86-0.09-1.68-0.63-2.52-0.96c-25.3,0-50.6,0-75.91,0c-1.01,0.33-2,0.91-3.02,0.96c-68.44,3.66-135.17,16.36-200.03,38.5
		C403.86,75.34,311.06,131.64,231.1,208.73C127.02,309.08,57.44,429.54,22.34,569.8C10.2,618.32,3.16,667.66,1.46,717.65
		c-6.32,185.9,47.01,352.8,162.9,498.37c103.29,129.75,236.21,215.51,396.64,258.15c51.92,13.8,104.81,21.62,158.49,23.4
		c185.56,6.16,352.12-47.23,497.39-162.89c129.88-103.4,215.72-236.45,258.29-397.12c12.73-48.04,20.01-96.95,22.89-146.54
		c0.06-1.02,0.63-2.01,0.97-3.02c0-25.63,0-51.27,0-76.9C1498.71,710.28,1498.17,709.48,1498.07,708.62z"/>
	<path class="st1" d="M700.19,189.74c20.59,16.16,41.78,31.63,61.61,48.67c23.23,19.96,48.09,38.99,67.26,62.49
		c41.34,50.69,77.98,104.82,93.77,169.97c11.49,47.42,5.54,93.34-12.38,138.15c-4.24,10.6-8.59,21.17-12.9,31.77
		c12.18,1,24.53,1.04,36.51,3.14c71.76,12.61,118.41,55.44,144.24,122.18c16.51,42.64,18.92,87.14,13.85,132.09
		c-7.48,66.34-28.9,127.86-65.42,184c-27.48,42.24-62.16,77.66-104.34,104.76c-39.42,25.33-82.71,42.81-129.49,49.15
		c-23.78,3.23-48.04,5.17-71.99,4.48c-31.62-0.91-61.54-11.4-90.35-23.88c-110-47.65-184.23-127.87-214.18-244.73
		c-27.16-105.96-2.68-202.42,62.45-289.25c25.64-34.18,57.68-61.78,90.48-88.8c47.96-39.51,88.87-85.31,116.91-141.3
		c42.2-84.29,48.85-170.69,13.26-259.1c-0.32-0.8-0.5-1.65-0.75-2.48C699.23,190.6,699.71,190.17,700.19,189.74z M672.78,1090.1
		c0.99-0.83,1.63-1.17,1.99-1.69c26.43-39.15,59.85-71.84,95.23-102.66c38.18-33.26,75.01-67.86,106.55-107.63
		c22.73-28.66,43.57-58.59,54.8-94c8.55-26.94,10.82-53.93-3.57-79.6c-8.8-15.69-19.26-30.08-40.54-30.02
		c-5.28,0.01-7.73,1.27-10.41,5.59c-10.59,17.08-20.37,34.9-32.82,50.56c-28.96,36.43-59.55,71.57-88.98,107.63
		c-17.28,21.16-36.62,41.42-49.77,65.02C673.08,961.06,660.54,1023.39,672.78,1090.1z"/>
	<path class="st1" d="M648.86,864.39l61.47,13.91c-149.75-9.16-240.78-182-116.28-309.03C709.33,451.62,639,350.78,639,350.78
		s62.04,33.99,80.71,55.05c26.85,30.27,66.78,71.1,55.03,132.07c-14.11,73.22-56.94,117.66-82.17,160.79
		c-9.91,16.95-18.28,53.08-14.89,80.16c0.11,0.86,0.24,1.71,0.37,2.56l0.17,1.16c1.66,11.29,4.42,22.39,8.19,32.98
		c6.66,18.7,16.42,35.98,29.01,51.35L648.86,864.39z M686.76,863.74l0.03,0c3,0.31,6.08,0.52,9.23,0.65
		c-9.53-13.63-17.16-28.42-22.76-44.16c-4.08-11.45-7.05-23.44-8.85-35.64l-0.16-1.1c-0.15-0.97-0.29-1.94-0.41-2.91
		c-3.67-29.26-0.55-58.13,9.28-85.8c5.17-14.55,12.08-28.39,20.55-41.12c1.39-2.6,10.62-19.84,16.12-28.73
		c17.27-27.93,34.79-62.91,36.94-97.66c5.18-83.88-63.97-128.2-76.49-137.23c1.41,9.6,3.48,23.92,3.49,24.07
		c9.47,75.5-23.53,125.52-63.43,164.81c-38.64,37.25-63.46,89.35-56.8,142.45c0.81,6.43,1.96,12.71,3.42,18.68
		c10.49,43.54,37.43,80.43,75.87,103.9c8.01,4.89,16.47,9.14,25.15,12.61c9.27,3.47,19.01,5.9,28.81,7.17L686.76,863.74z"/>
	<path class="st1" d="M626.93,1250.58c-51.78-27.73-88.88-68.36-99.22-108.68c-5.86-22.83-2.73-44.46,9.04-62.56
		c41.6-63.94,69.12-149.35,69.4-150.2l7.93-24.84l8.25,24.73c2.16,6.5,1.55,15.15-0.34,24.03c42.71-52.41,62.88-114.41,60.05-184.8
		c-2.55-63.29-23.77-110.04-23.98-110.51l-26.9-58.41L737,726.38l1.36,81.87l-112.9,217.8l-2,3.69
		c-18.62,34.44-29.58,73.3-31.72,112.39c-0.9,16.54,4.11,32.91,14.1,46.11l0.2,0.26l49.73,77.51L626.93,1250.58z"/>
	<polygon class="st1" points="784.2,508.14 739.2,453.12 666.25,381.08 673.99,450.99 635.84,559.97 563.78,644.64 571.1,721.72 
		694.93,741.04 	"/>
</g>
</svg>
